<?xml version="1.0" standalone="no"?>
<!DOCTYPE svg PUBLIC "-//W3C//DTD SVG 20010904//EN"
 "http://www.w3.org/TR/2001/REC-SVG-20010904/DTD/svg10.dtd">
<svg version="1.0" xmlns="http://www.w3.org/2000/svg"
 width="480.000000pt" height="360.000000pt" viewBox="0 0 480.000000 360.000000"
 preserveAspectRatio="xMidYMid meet">

<g transform="translate(0.000000,360.000000) scale(0.100000,-0.100000)"
fill="#000000" stroke="none">
<path d="M2445 2985 c-140 -30 -233 -63 -367 -132 -340 -176 -606 -485 -720
-838 -94 -293 -95 -637 -3 -894 75 -207 228 -380 407 -460 128 -56 180 -66
353 -66 244 1 414 43 647 160 206 105 426 288 503 420 26 43 26 47 11 70 -30
45 -51 33 -200 -119 -227 -231 -438 -346 -743 -407 -154 -31 -334 -25 -416 13
-114 54 -206 169 -247 312 -10 35 -23 111 -30 170 -17 153 5 363 66 618 l16
67 252 -1 c539 -3 845 65 1043 231 137 114 208 262 208 432 0 89 -2 99 -37
170 -47 95 -104 154 -200 207 -127 71 -345 90 -543 47z m373 -101 c153 -45
241 -152 250 -304 19 -323 -254 -523 -778 -570 -109 -9 -540 -14 -540 -6 0 2
16 51 36 108 147 424 394 689 719 773 74 19 245 18 313 -1z"/>
</g>
</svg>
