<?xml version="1.0" standalone="no"?>
<!DOCTYPE svg PUBLIC "-//W3C//DTD SVG 20010904//EN"
 "http://www.w3.org/TR/2001/REC-SVG-20010904/DTD/svg10.dtd">
<svg version="1.0" xmlns="http://www.w3.org/2000/svg"
 width="225.000000pt" height="225.000000pt" viewBox="0 0 225.000000 225.000000"
 preserveAspectRatio="xMidYMid meet">

<g transform="translate(0.000000,225.000000) scale(0.100000,-0.100000)"
fill="#000000" stroke="none">
<path d="M205 1951 c-47 -22 -89 -64 -104 -104 -8 -19 -11 -257 -11 -724 0
-680 0 -698 20 -739 12 -24 39 -54 62 -70 l41 -29 899 -3 c875 -2 899 -2 937
17 56 29 99 82 106 133 3 24 5 352 3 730 l-3 686 -31 39 c-16 21 -50 48 -74
61 l-44 22 -881 0 c-835 0 -882 -1 -920 -19z m1830 -20 c50 -22 92 -71 100
-114 3 -18 5 -341 3 -719 l-3 -686 -30 -38 c-65 -80 8 -74 -977 -74 -595 0
-886 3 -905 11 -34 13 -80 55 -99 91 -12 22 -14 144 -14 726 l0 699 23 33 c43
64 67 74 190 81 62 3 463 6 892 7 737 1 782 1 820 -17z"/>
<path d="M870 1125 l0 -265 35 0 35 0 0 265 0 265 -35 0 -35 0 0 -265z"/>
<path d="M1060 1061 l0 -201 35 0 35 0 0 149 0 150 26 20 c31 25 100 28 130 7
17 -13 19 -30 22 -170 l3 -156 36 0 35 0 -4 166 -3 166 -37 34 c-30 27 -46 34
-78 34 -44 0 -88 -18 -111 -46 -13 -16 -14 -15 -19 12 -4 24 -11 30 -38 32
l-32 3 0 -200z"/>
</g>
</svg>
