<?xml version="1.0" standalone="no"?>
<!DOCTYPE svg PUBLIC "-//W3C//DTD SVG 20010904//EN"
 "http://www.w3.org/TR/2001/REC-SVG-20010904/DTD/svg10.dtd">
<svg version="1.0" xmlns="http://www.w3.org/2000/svg"
 width="612.000000pt" height="556.000000pt" viewBox="0 0 612.000000 556.000000"
 preserveAspectRatio="xMidYMid meet">

<g transform="translate(0.000000,556.000000) scale(0.100000,-0.100000)"
fill="#000000" stroke="none">
<path d="M2820 4520 c-583 -25 -952 -97 -1245 -242 -213 -106 -384 -256 -451
-393 -35 -72 -38 -87 -37 -155 2 -149 70 -260 167 -271 l29 -4 1 70 c1 89 31
150 105 216 157 140 501 239 828 239 l103 0 0 -53 c0 -205 -42 -585 -91 -827
-105 -522 -264 -875 -606 -1346 -144 -199 -172 -327 -104 -478 23 -52 98 -136
157 -175 159 -105 368 -70 523 87 90 92 158 249 236 547 99 378 155 750 245
1653 62 613 57 579 83 586 26 7 674 2 682 -5 2 -3 -27 -325 -65 -717 -80 -828
-95 -1056 -86 -1347 9 -327 44 -530 106 -620 45 -65 134 -140 214 -178 108
-53 184 -70 311 -70 133 1 240 31 328 92 78 55 113 95 153 176 29 58 34 80 34
137 0 73 -18 139 -57 205 l-25 43 -64 -46 c-127 -90 -258 -107 -323 -40 -37
38 -66 116 -82 216 -17 114 -7 348 56 1278 l60 872 331 0 c359 0 415 6 510 50
154 74 214 207 180 398 -8 46 -19 89 -25 95 -7 9 -43 10 -143 4 -119 -8 -514
-6 -1518 7 -179 3 -413 1 -520 -4z"/>
</g>
</svg>
